<svg width="150" height="150" viewBox="0 0 150 150" fill="none" xmlns="http://www.w3.org/2000/svg">
<path d="M75.3012 107.783C93.879 107.783 108.939 92.7222 108.939 74.1443C108.939 55.5664 93.879 40.5061 75.3012 40.5061C56.7233 40.5061 41.663 55.5664 41.663 74.1443C41.663 92.7222 56.7233 107.783 75.3012 107.783Z" fill="#C6302C"/>
<path d="M75.2294 62.3758C74.8685 62.3758 74.6519 62.5201 74.5076 62.7367C74.1466 63.5307 75.1572 65.2632 75.1572 65.3353C75.2294 65.2632 76.1678 63.5307 75.8069 62.7367C75.8069 62.5201 75.5903 62.3758 75.2294 62.3758Z" fill="white"/>
<path d="M78.1155 60.9326L77.3215 59.7777C77.3937 59.2002 77.4658 58.4061 77.538 57.3956C77.538 56.2406 77.3215 55.3022 77.0327 54.5082V54.436C76.9605 54.2916 76.9605 54.2194 76.8884 54.075C76.2387 52.6314 75.3725 51.9095 75.3003 51.9095C75.2281 51.9817 74.3619 52.7757 73.7122 54.075C73.64 54.2194 73.64 54.2916 73.5678 54.436V54.5082C73.2791 55.3022 73.0625 56.3128 73.0625 57.3956C73.0625 58.4061 73.1347 59.2002 73.2791 59.7777L72.4851 60.9326C72.4851 60.9326 72.3407 61.1492 72.4851 61.5823C72.6294 62.0154 73.3513 64.0366 73.3513 64.0366C73.3513 64.0366 73.3513 64.0366 73.4235 64.0366C73.4235 64.0366 73.4957 64.0366 73.4957 63.9644C73.4957 63.9644 73.3513 62.0876 74.0731 61.7988H74.2175V61.871C74.2175 62.0154 74.2897 62.1598 74.4341 62.1598H76.0943C76.2387 62.1598 76.3109 62.0154 76.3109 61.871V61.7988H76.5274C77.3215 62.0876 77.1049 63.9644 77.1049 63.9644C77.1049 64.0366 77.1771 64.0366 77.1771 64.0366H77.2493C77.2493 64.0366 77.9711 62.0154 78.1155 61.5823C78.2599 61.1492 78.1877 61.0048 78.1155 60.9326Z" fill="white"/>
<path d="M75.2289 65.4092C75.3011 65.2649 76.2395 63.5324 75.9507 62.7384C75.8064 62.4496 75.5898 62.3775 75.3011 62.3775L75.2289 65.4092Z" fill="#ECECEC"/>
<path d="M78.1101 60.9338L77.3161 59.7788C77.3883 59.2013 77.4605 58.4073 77.5326 57.3967C77.5326 56.2418 77.3161 55.3034 77.0274 54.5093V54.4371C76.9552 54.2928 76.9552 54.2206 76.883 54.0762C76.2333 52.6325 75.3671 51.9107 75.2949 51.9107V62.0887H76.089C76.2333 62.0887 76.3055 61.9444 76.3055 61.8V61.7278H76.5221C77.3161 62.0166 77.0995 63.8934 77.0995 63.8934C77.0995 63.9655 77.1717 63.9656 77.1717 63.9656H77.2439C77.2439 63.9656 77.9658 61.9444 78.1101 61.5113C78.2545 61.1503 78.1823 61.006 78.1101 60.9338Z" fill="#ECECEC"/>
<path d="M64.0399 103.164C67.5048 104.535 71.4028 105.257 75.3008 105.257C79.1988 105.257 83.3133 104.463 86.4895 103.164C79.8484 96.0176 75.3008 79.9925 75.3008 66.9271C75.3008 79.9925 70.6809 95.9454 64.0399 103.164Z" fill="white"/>
<path d="M67.793 104.318C70.3916 104.967 73.0625 105.184 75.3002 105.184C77.971 105.184 80.2088 104.895 82.6631 104.318C78.8373 98.1818 75.3002 85.405 75.3002 74.1442C75.3002 85.405 71.6188 98.1818 67.793 104.318Z" fill="#F5F5F5"/>
<path d="M75.3009 108.287C94.1578 108.287 109.444 93.0004 109.444 74.1435C109.444 55.2866 94.1578 40 75.3009 40C56.4439 40 41.1573 55.2866 41.1573 74.1435C41.1573 93.0004 56.4439 108.287 75.3009 108.287Z" fill="#212121"/>
<path d="M75.302 105.905C92.9231 105.905 107.208 91.6203 107.208 73.9993C107.208 56.3782 92.9231 42.0935 75.302 42.0935C57.6809 42.0935 43.3962 56.3782 43.3962 73.9993C43.3962 91.6203 57.6809 105.905 75.302 105.905Z" fill="#686868"/>
<mask id="mask0_1_444" style="mask-type:alpha" maskUnits="userSpaceOnUse" x="40" y="45" width="64" height="65">
<path d="M71.9058 109.599C89.5269 109.599 103.812 95.3139 103.812 77.6928C103.812 60.0717 89.5269 45.787 71.9058 45.787C54.2847 45.787 40 60.0717 40 77.6928C40 95.3139 54.2847 109.599 71.9058 109.599Z" fill="#1D1D1D"/>
</mask>
<g mask="url(#mask0_1_444)">
<path opacity="0.32" d="M91.0377 77.173C91.2769 77.173 91.4708 76.9791 91.4708 76.7399C91.4708 76.5007 91.2769 76.3068 91.0377 76.3068C90.7985 76.3068 90.6046 76.5007 90.6046 76.7399C90.6046 76.9791 90.7985 77.173 91.0377 77.173Z" fill="white"/>
<path opacity="0.32" d="M97.7516 54.9377C97.9908 54.9377 98.1847 54.7438 98.1847 54.5046C98.1847 54.2654 97.9908 54.0715 97.7516 54.0715C97.5124 54.0715 97.3185 54.2654 97.3185 54.5046C97.3185 54.7438 97.5124 54.9377 97.7516 54.9377Z" fill="white"/>
<path opacity="0.32" d="M45.4166 80.419C45.6558 80.419 45.8498 80.2251 45.8498 79.9859C45.8498 79.7467 45.6558 79.5528 45.4166 79.5528C45.1774 79.5528 44.9835 79.7467 44.9835 79.9859C44.9835 80.2251 45.1774 80.419 45.4166 80.419Z" fill="white"/>
<path opacity="0.32" d="M53.7905 50.1731C54.0297 50.1731 54.2236 49.9792 54.2236 49.74C54.2236 49.5008 54.0297 49.3069 53.7905 49.3069C53.5513 49.3069 53.3574 49.5008 53.3574 49.74C53.3574 49.9792 53.5513 50.1731 53.7905 50.1731Z" fill="white"/>
<path opacity="0.32" d="M50.7581 61.798C50.9973 61.798 51.1912 61.6041 51.1912 61.3649C51.1912 61.1257 50.9973 60.9318 50.7581 60.9318C50.5189 60.9318 50.325 61.1257 50.325 61.3649C50.325 61.6041 50.5189 61.798 50.7581 61.798Z" fill="#55FF61"/>
<path opacity="0.32" d="M52.7081 75.5837C52.9473 75.5837 53.1412 75.3897 53.1412 75.1505C53.1412 74.9113 52.9473 74.7174 52.7081 74.7174C52.4689 74.7174 52.275 74.9113 52.275 75.1505C52.275 75.3897 52.4689 75.5837 52.7081 75.5837Z" fill="#55FF61"/>
<path opacity="0.32" d="M76.3124 87.8549C76.5516 87.8549 76.7455 87.6609 76.7455 87.4217C76.7455 87.1825 76.5516 86.9886 76.3124 86.9886C76.0732 86.9886 75.8793 87.1825 75.8793 87.4217C75.8793 87.6609 76.0732 87.8549 76.3124 87.8549Z" fill="#55FF61"/>
<path opacity="0.32" d="M67.7223 104.385C67.9615 104.385 68.1554 104.191 68.1554 103.952C68.1554 103.713 67.9615 103.519 67.7223 103.519C67.4831 103.519 67.2892 103.713 67.2892 103.952C67.2892 104.191 67.4831 104.385 67.7223 104.385Z" fill="white"/>
<path opacity="0.32" d="M88.5839 66.3442C88.8231 66.3442 89.017 66.1503 89.017 65.9111C89.017 65.6719 88.8231 65.4779 88.5839 65.4779C88.3447 65.4779 88.1508 65.6719 88.1508 65.9111C88.1508 66.1503 88.3447 66.3442 88.5839 66.3442Z" fill="white"/>
<path opacity="0.32" d="M63.8232 60.3511C64.0624 60.3511 64.2564 60.1572 64.2564 59.918C64.2564 59.6788 64.0624 59.4849 63.8232 59.4849C63.584 59.4849 63.3901 59.6788 63.3901 59.918C63.3901 60.1572 63.584 60.3511 63.8232 60.3511Z" fill="white"/>
<path opacity="0.32" d="M75.2282 49.5236C75.3877 49.5236 75.5169 49.3943 75.5169 49.2348C75.5169 49.0754 75.3877 48.9461 75.2282 48.9461C75.0687 48.9461 74.9395 49.0754 74.9395 49.2348C74.9395 49.3943 75.0687 49.5236 75.2282 49.5236Z" fill="white"/>
<path opacity="0.32" d="M42.0242 64.2485C42.0242 64.3929 41.8799 64.5373 41.7355 64.5373C41.5911 64.5373 41.4468 64.3929 41.4468 64.2485C41.4468 64.1042 41.5911 63.9598 41.7355 63.9598C41.8799 63.8876 42.0242 64.032 42.0242 64.2485Z" fill="white"/>
<path opacity="0.32" d="M41.3015 97.1661C41.3015 97.3105 41.1571 97.4548 41.0127 97.4548C40.8684 97.4548 40.724 97.3105 40.724 97.1661C40.724 97.0217 40.8684 96.8774 41.0127 96.8774C41.1571 96.8774 41.3015 97.0217 41.3015 97.1661Z" fill="white"/>
<path opacity="0.32" d="M68.0831 72.406C68.0831 72.5504 67.9387 72.6947 67.7943 72.6947C67.65 72.6947 67.5056 72.5504 67.5056 72.406C67.5056 72.2616 67.65 72.1172 67.7943 72.1172C67.9387 72.1172 68.0831 72.2616 68.0831 72.406Z" fill="white"/>
<path opacity="0.32" d="M96.5969 97.5272C96.5969 97.6716 96.4525 97.816 96.3081 97.816C96.1638 97.816 96.0194 97.6716 96.0194 97.5272C96.0194 97.3829 96.1638 97.2385 96.3081 97.2385C96.4525 97.1663 96.5969 97.3107 96.5969 97.5272Z" fill="white"/>
<path opacity="0.32" d="M103.237 107.632C103.237 107.776 103.092 107.921 102.948 107.921C102.804 107.921 102.659 107.776 102.659 107.632C102.659 107.488 102.804 107.343 102.948 107.343C103.092 107.271 103.237 107.416 103.237 107.632Z" fill="white"/>
<path opacity="0.32" d="M103.092 72.3363C103.092 72.4806 102.948 72.625 102.803 72.625C102.659 72.625 102.515 72.4806 102.515 72.3363C102.515 72.1919 102.659 72.0475 102.803 72.0475C102.948 71.9753 103.092 72.1197 103.092 72.3363Z" fill="white"/>
<path opacity="0.32" d="M82.3756 46.4197C82.3756 46.5641 82.2312 46.7084 82.0868 46.7084C81.9425 46.7084 81.7981 46.5641 81.7981 46.4197C81.7981 46.2753 81.9425 46.131 82.0868 46.131C82.2312 46.131 82.3756 46.2753 82.3756 46.4197Z" fill="#FFF688"/>
<path opacity="0.32" d="M76.89 69.2313C76.89 69.3756 76.7456 69.52 76.6012 69.52C76.4569 69.52 76.3125 69.3756 76.3125 69.2313C76.3125 69.0869 76.4569 68.9425 76.6012 68.9425C76.7456 68.9425 76.89 69.0147 76.89 69.2313Z" fill="#FFF688"/>
<path opacity="0.32" d="M79.632 86.5555C79.632 86.6998 79.4877 86.8442 79.3433 86.8442C79.1989 86.8442 79.0546 86.6998 79.0546 86.5555C79.0546 86.4111 79.1989 86.2667 79.3433 86.2667C79.5599 86.1945 79.632 86.3389 79.632 86.5555Z" fill="#FFF688"/>
<path opacity="0.32" d="M57.976 66.2C57.976 66.3444 57.8317 66.4887 57.6873 66.4887C57.5429 66.4887 57.3986 66.3444 57.3986 66.2C57.3986 66.0556 57.5429 65.9112 57.6873 65.9112C57.8317 65.9112 57.976 66.0556 57.976 66.2Z" fill="#FFF688"/>
<path opacity="0.32" d="M55.0168 84.3893C55.0168 84.5337 54.8724 84.6781 54.7281 84.6781C54.5837 84.6781 54.4393 84.5337 54.4393 84.3893C54.4393 84.245 54.5837 84.1006 54.7281 84.1006C54.8724 84.1006 55.0168 84.245 55.0168 84.3893Z" fill="#FFF688"/>
<path opacity="0.32" d="M67.7223 86.411C67.9615 86.411 68.1554 86.2171 68.1554 85.9779C68.1554 85.7387 67.9615 85.5448 67.7223 85.5448C67.4831 85.5448 67.2892 85.7387 67.2892 85.9779C67.2892 86.2171 67.4831 86.411 67.7223 86.411Z" fill="white"/>
<path opacity="0.08" d="M75.8064 68.9409L58.2655 63.3105" stroke="#E6E6E6" stroke-width="0.5"/>
<path opacity="0.02" d="M41.6635 64.178L52.7078 75.1501" stroke="#E6E6E6" stroke-width="0.5"/>
<path opacity="0.11" d="M96.1622 54.577H99.2662" stroke="#E6E6E6" stroke-width="0.5" stroke-linecap="round" stroke-linejoin="round"/>
<path opacity="0.11" d="M97.6782 52.9914V56.0954" stroke="#E6E6E6" stroke-width="0.5" stroke-linecap="round" stroke-linejoin="round"/>
</g>
<path d="M75.2297 62.1625C74.8687 62.1625 74.6522 62.3069 74.5078 62.5956C74.1469 63.3897 75.1575 65.1943 75.1575 65.2665L75.2297 65.3387L75.3018 65.2665C75.374 65.1943 76.3124 63.3897 75.9515 62.5956C75.8071 62.2347 75.5906 62.1625 75.2297 62.1625Z" fill="white"/>
<path d="M78.1895 60.6455L77.3954 59.4183C77.4676 58.8408 77.612 58.0468 77.612 57.0362C77.612 55.8812 77.3954 54.8707 77.1067 54.0766V54.0044C77.0345 53.8601 77.0345 53.7879 76.9623 53.6435C76.3127 52.1998 75.3742 51.4058 75.3742 51.4058C75.3021 51.478 74.4358 52.272 73.7862 53.6435C73.714 53.7879 73.714 53.8601 73.6418 54.0044V54.0766C73.3531 54.8707 73.1365 55.8812 73.1365 57.0362C73.1365 58.0468 73.2087 58.8408 73.3531 59.4905L72.559 60.6455C72.559 60.6455 72.4147 60.862 72.559 61.2951C72.7034 61.7282 73.4974 63.7494 73.4974 63.7494C73.4974 63.7494 73.4974 63.7494 73.5696 63.7494C73.5696 63.7494 73.6418 63.7494 73.6418 63.6772C73.6418 63.6772 73.4253 61.7282 74.2193 61.4395H74.3637V61.5117C74.3637 61.656 74.4358 61.8004 74.5802 61.8004H76.2405C76.3848 61.8004 76.457 61.656 76.457 61.5117V61.4395H76.6736C77.4676 61.7282 77.2511 63.6772 77.2511 63.6772C77.2511 63.7494 77.3232 63.7494 77.3232 63.7494H77.3954C77.3954 63.7494 78.1895 61.7282 78.3338 61.2951C78.3338 60.862 78.1895 60.7176 78.1895 60.6455Z" fill="white"/>
<path d="M75.2289 65.2636C75.3011 65.1193 76.3117 63.3868 75.9507 62.5206C75.8064 62.2319 75.5898 62.1597 75.2289 62.0875V65.2636Z" fill="#ECECEC"/>
<path d="M78.1881 60.6448L77.3941 59.4177C77.4663 58.8402 77.6107 58.0462 77.6107 57.0356C77.6107 55.8806 77.3941 54.87 77.1054 54.076V54.0038C77.0332 53.8594 77.0332 53.7872 76.961 53.6429C76.3113 52.1992 75.3729 51.4051 75.3729 51.4051V61.7998H76.167C76.3113 61.7998 76.3835 61.6554 76.3835 61.511V61.4389H76.6001C77.3941 61.7276 77.1775 63.6766 77.1775 63.6766C77.1775 63.7488 77.2497 63.7488 77.2497 63.7488H77.3219C77.3219 63.7488 78.1159 61.7276 78.2603 61.2945C78.3325 60.8614 78.1881 60.717 78.1881 60.6448Z" fill="#ECECEC"/>
<mask id="mask1_1_444" style="mask-type:alpha" maskUnits="userSpaceOnUse" x="43" y="42" width="64" height="64">
<path d="M106.995 74.0762C106.995 91.6175 92.7749 105.838 75.2335 105.838C57.6922 105.838 43.4722 91.6175 43.4722 74.0762C43.4722 56.5349 57.6922 42.3148 75.2335 42.3148C92.7749 42.3148 106.995 56.5349 106.995 74.0762Z" fill="#C4C4C4"/>
</mask>
<g mask="url(#mask1_1_444)">
<path d="M102.659 105.4C102.659 120.487 90.3875 132.758 75.3009 132.758C60.2142 132.758 47.9427 120.487 47.9427 105.4C47.9427 90.3136 60.2142 78.0422 75.3009 78.0422C90.3875 78.1143 102.659 90.3136 102.659 105.4Z" fill="#929292"/>
<path d="M102.587 104.678C102.442 98.7588 100.421 93.3449 97.1007 88.9416C91.9756 94.572 88.8716 102.945 102.587 104.678ZM70.3201 119.187C59.8532 121.786 69.8869 112.041 67.1439 108.359C65.0506 105.616 56.4605 106.338 48.2314 109.009C49.1698 116.444 53.14 122.941 58.8426 127.2C66.0611 122.796 73.2075 124.89 82.8802 131.675C86.2729 130.664 89.4491 129.076 92.1199 126.911C85.9842 124.745 81.3644 121.28 82.8802 118.032C84.6127 114.351 92.6974 115.073 99.7715 117.527C100.782 115.578 101.504 113.484 102.009 111.247C81.1478 101.935 79.9928 116.805 70.3201 119.187ZM65.7724 89.3025C65.7724 92.984 53.8619 100.924 68.6598 101.935C83.3855 102.945 87.3557 98.6866 84.0352 93.9946C81.22 90.0244 76.0227 83.1668 84.4683 79.6297C81.5809 78.6191 78.477 78.0417 75.3008 78.0417C66.9995 78.0417 59.5645 81.7953 54.5115 87.6423C60.5751 86.776 65.7724 86.776 65.7724 89.3025Z" fill="#363636"/>
<path opacity="0.1" d="M100.638 103.667C100.638 116.661 90.0986 127.2 77.1053 127.2C64.112 127.2 53.573 116.661 53.573 103.667C53.573 90.6741 64.112 80.1351 77.1053 80.1351C90.0986 80.1351 100.638 90.6741 100.638 103.667Z" fill="white"/>
<path opacity="0.07" d="M79.7039 119.187C89.7503 119.187 97.8945 111.043 97.8945 100.996C97.8945 90.9498 89.7503 82.8056 79.7039 82.8056C69.6575 82.8056 61.5133 90.9498 61.5133 100.996C61.5133 111.043 69.6575 119.187 79.7039 119.187Z" fill="white"/>
</g>
<path d="M63.8237 103.738C67.3608 105.182 71.331 105.904 75.3011 105.904C79.2713 105.904 83.458 105.11 86.7785 103.81C79.9932 96.5195 75.3011 80.2057 75.3011 66.8515C75.3011 80.1335 70.6091 96.4473 63.8237 103.738Z" fill="white"/>
<path d="M67.5767 104.967C70.2475 105.617 72.9183 105.906 75.3004 105.906C78.0435 105.906 80.2812 105.617 82.8799 104.967C78.9097 98.687 75.3004 85.6937 75.3004 74.1441C75.3004 85.6937 71.5468 98.687 67.5767 104.967Z" fill="#F5F5F5"/>
<rect x="40" y="4" width="51.1719" height="30" rx="3" fill="#404040"/>
<rect x="40.5" y="4.5" width="50.1719" height="29" rx="2.5" stroke="black" stroke-opacity="0.14902"/>
<path d="M51.3438 16C51.2969 15.6042 51.1068 15.2969 50.7734 15.0781C50.4401 14.8594 50.0313 14.75 49.5469 14.75C49.1927 14.75 48.8828 14.8073 48.6172 14.9219C48.3542 15.0365 48.1484 15.194 48 15.3945C47.8542 15.5951 47.7813 15.8229 47.7813 16.0781C47.7813 16.2917 47.832 16.4753 47.9336 16.6289C48.0378 16.7799 48.1706 16.9062 48.332 17.0078C48.4935 17.1068 48.6628 17.1888 48.8398 17.2539C49.0169 17.3164 49.1797 17.3672 49.3281 17.4062L50.1406 17.625C50.349 17.6797 50.5807 17.7552 50.8359 17.8516C51.0938 17.9479 51.3398 18.0794 51.5742 18.2461C51.8112 18.4102 52.0065 18.6211 52.1602 18.8789C52.3138 19.1367 52.3906 19.4531 52.3906 19.8281C52.3906 20.2604 52.2773 20.651 52.0508 21C51.8268 21.349 51.4987 21.6263 51.0664 21.832C50.6367 22.0378 50.1146 22.1406 49.5 22.1406C48.9271 22.1406 48.431 22.0482 48.0117 21.8633C47.5951 21.6784 47.2669 21.4206 47.0273 21.0898C46.7904 20.7591 46.6563 20.375 46.625 19.9375H47.625C47.651 20.2396 47.7526 20.4896 47.9297 20.6875C48.1094 20.8828 48.3359 21.0286 48.6094 21.125C48.8854 21.2187 49.1823 21.2656 49.5 21.2656C49.8698 21.2656 50.2018 21.2057 50.4961 21.0859C50.7904 20.9635 51.0234 20.7943 51.1953 20.5781C51.3672 20.3594 51.4531 20.1042 51.4531 19.8125C51.4531 19.5469 51.3789 19.3307 51.2305 19.1641C51.082 18.9974 50.8867 18.862 50.6445 18.7578C50.4023 18.6536 50.1406 18.5625 49.8594 18.4844L48.875 18.2031C48.25 18.0234 47.7552 17.7669 47.3906 17.4336C47.026 17.1003 46.8438 16.6641 46.8438 16.125C46.8438 15.6771 46.9648 15.2865 47.207 14.9531C47.4518 14.6172 47.7799 14.3568 48.1914 14.1719C48.6055 13.9844 49.0677 13.8906 49.5781 13.8906C50.0938 13.8906 50.5521 13.9831 50.9531 14.168C51.3542 14.3503 51.6719 14.6003 51.9062 14.918C52.1432 15.2357 52.2682 15.5964 52.2813 16H51.3438ZM56.374 22.125C55.7959 22.125 55.2972 21.9974 54.8779 21.7422C54.4613 21.4844 54.1396 21.125 53.9131 20.6641C53.6891 20.2005 53.5771 19.6615 53.5771 19.0469C53.5771 18.4323 53.6891 17.8906 53.9131 17.4219C54.1396 16.9505 54.4548 16.5833 54.8584 16.3203C55.2646 16.0547 55.7386 15.9219 56.2803 15.9219C56.5928 15.9219 56.9014 15.974 57.2061 16.0781C57.5107 16.1823 57.7881 16.3516 58.0381 16.5859C58.2881 16.8177 58.4873 17.125 58.6357 17.5078C58.7842 17.8906 58.8584 18.362 58.8584 18.9219V19.3125H54.2334V18.5156H57.9209C57.9209 18.1771 57.8532 17.875 57.7178 17.6094C57.585 17.3437 57.3949 17.1341 57.1475 16.9805C56.9027 16.8268 56.6136 16.75 56.2803 16.75C55.9131 16.75 55.5954 16.8411 55.3271 17.0234C55.0615 17.2031 54.8571 17.4375 54.7139 17.7266C54.5706 18.0156 54.499 18.3255 54.499 18.6562V19.1875C54.499 19.6406 54.5771 20.0247 54.7334 20.3398C54.8923 20.6523 55.1123 20.8906 55.3936 21.0547C55.6748 21.2161 56.0016 21.2969 56.374 21.2969C56.6162 21.2969 56.835 21.263 57.0303 21.1953C57.2282 21.125 57.3988 21.0208 57.542 20.8828C57.6852 20.7422 57.7959 20.5677 57.874 20.3594L58.7646 20.6094C58.6709 20.9115 58.5133 21.1771 58.292 21.4062C58.0706 21.6328 57.7972 21.8099 57.4717 21.9375C57.1462 22.0625 56.7803 22.125 56.374 22.125ZM62.6982 22.125C62.1357 22.125 61.6514 21.9922 61.2451 21.7266C60.8389 21.4609 60.5264 21.0951 60.3076 20.6289C60.0889 20.1628 59.9795 19.6302 59.9795 19.0312C59.9795 18.4219 60.0915 17.8841 60.3154 17.418C60.542 16.9492 60.8571 16.5833 61.2607 16.3203C61.667 16.0547 62.141 15.9219 62.6826 15.9219C63.1045 15.9219 63.4847 16 63.8232 16.1562C64.1618 16.3125 64.4391 16.5312 64.6553 16.8125C64.8714 17.0937 65.0055 17.4219 65.0576 17.7969H64.1357C64.0654 17.5234 63.9092 17.2812 63.667 17.0703C63.4274 16.8568 63.1045 16.75 62.6982 16.75C62.3389 16.75 62.0238 16.8437 61.7529 17.0312C61.4847 17.2161 61.2751 17.4779 61.124 17.8164C60.9756 18.1523 60.9014 18.5469 60.9014 19C60.9014 19.4635 60.9743 19.8672 61.1201 20.2109C61.2686 20.5547 61.4769 20.8216 61.7451 21.0117C62.016 21.2018 62.3337 21.2969 62.6982 21.2969C62.9378 21.2969 63.1553 21.2552 63.3506 21.1719C63.5459 21.0885 63.7113 20.9688 63.8467 20.8125C63.9821 20.6562 64.0785 20.4687 64.1357 20.25H65.0576C65.0055 20.6042 64.8766 20.9232 64.6709 21.207C64.4678 21.4883 64.1982 21.7122 63.8623 21.8789C63.529 22.043 63.141 22.125 62.6982 22.125ZM69.0146 16V16.7812H65.9053V16H69.0146ZM66.8115 14.5625H67.7334V20.2812C67.7334 20.5417 67.7712 20.737 67.8467 20.8672C67.9248 20.9948 68.0238 21.0807 68.1436 21.125C68.266 21.1667 68.3949 21.1875 68.5303 21.1875C68.6318 21.1875 68.7152 21.1823 68.7803 21.1719C68.8454 21.1589 68.8975 21.1484 68.9365 21.1406L69.124 21.9687C69.0615 21.9922 68.9743 22.0156 68.8623 22.0391C68.7503 22.0651 68.6084 22.0781 68.4365 22.0781C68.1761 22.0781 67.9209 22.0221 67.6709 21.9102C67.4235 21.7982 67.2178 21.6276 67.0537 21.3984C66.8923 21.1693 66.8115 20.8802 66.8115 20.5312V14.5625ZM70.4014 22V16H71.3232V22H70.4014ZM70.8701 15C70.6904 15 70.5355 14.9388 70.4053 14.8164C70.2777 14.694 70.2139 14.5469 70.2139 14.375C70.2139 14.2031 70.2777 14.056 70.4053 13.9336C70.5355 13.8112 70.6904 13.75 70.8701 13.75C71.0498 13.75 71.2035 13.8112 71.3311 13.9336C71.4613 14.056 71.5264 14.2031 71.5264 14.375C71.5264 14.5469 71.4613 14.694 71.3311 14.8164C71.2035 14.9388 71.0498 15 70.8701 15ZM75.4492 22.125C74.9076 22.125 74.4323 21.9961 74.0234 21.7383C73.6172 21.4805 73.2995 21.1198 73.0703 20.6562C72.8438 20.1927 72.7305 19.651 72.7305 19.0312C72.7305 18.4062 72.8438 17.8607 73.0703 17.3945C73.2995 16.9284 73.6172 16.5664 74.0234 16.3086C74.4323 16.0508 74.9076 15.9219 75.4492 15.9219C75.9909 15.9219 76.4648 16.0508 76.8711 16.3086C77.2799 16.5664 77.5977 16.9284 77.8242 17.3945C78.0534 17.8607 78.168 18.4062 78.168 19.0312C78.168 19.651 78.0534 20.1927 77.8242 20.6562C77.5977 21.1198 77.2799 21.4805 76.8711 21.7383C76.4648 21.9961 75.9909 22.125 75.4492 22.125ZM75.4492 21.2969C75.8607 21.2969 76.1992 21.1914 76.4648 20.9805C76.7305 20.7695 76.9271 20.4922 77.0547 20.1484C77.1823 19.8047 77.2461 19.4323 77.2461 19.0312C77.2461 18.6302 77.1823 18.2565 77.0547 17.9102C76.9271 17.5638 76.7305 17.2839 76.4648 17.0703C76.1992 16.8568 75.8607 16.75 75.4492 16.75C75.0378 16.75 74.6992 16.8568 74.4336 17.0703C74.168 17.2839 73.9714 17.5638 73.8438 17.9102C73.7161 18.2565 73.6523 18.6302 73.6523 19.0312C73.6523 19.4323 73.7161 19.8047 73.8438 20.1484C73.9714 20.4922 74.168 20.7695 74.4336 20.9805C74.6992 21.1914 75.0378 21.2969 75.4492 21.2969ZM80.4971 18.3906V22H79.5752V16H80.4658V16.9375H80.5439C80.6846 16.6328 80.8981 16.388 81.1846 16.2031C81.471 16.0156 81.8408 15.9219 82.2939 15.9219C82.7002 15.9219 83.0557 16.0052 83.3604 16.1719C83.665 16.3359 83.902 16.5859 84.0713 16.9219C84.2406 17.2552 84.3252 17.6771 84.3252 18.1875V22H83.4033V18.25C83.4033 17.7786 83.2809 17.4115 83.0361 17.1484C82.7913 16.8828 82.4554 16.75 82.0283 16.75C81.734 16.75 81.471 16.8138 81.2393 16.9414C81.0101 17.069 80.8291 17.2552 80.6963 17.5C80.5635 17.7448 80.4971 18.0417 80.4971 18.3906Z" fill="white"/>
</svg>
